<svg width="128" height="128" viewBox="0 0 128 128" xmlns="http://www.w3.org/2000/svg">
  <defs>
    <linearGradient id="gradient" x1="0%" y1="0%" x2="100%" y2="100%">
      <stop offset="0%" style="stop-color:#667eea;stop-opacity:1" />
      <stop offset="100%" style="stop-color:#764ba2;stop-opacity:1" />
    </linearGradient>
  </defs>
  
  <!-- 背景圆形 -->
  <circle cx="64" cy="64" r="56" fill="url(#gradient)" stroke="#ffffff" stroke-width="4"/>
  
  <!-- 消息图标 -->
  <g transform="translate(64,64)">
    <!-- 主要消息框 -->
    <rect x="-24" y="-20" width="48" height="28" rx="6" fill="#ffffff" opacity="0.9"/>
    
    <!-- 消息线条 -->
    <line x1="-16" y1="-12" x2="16" y2="-12" stroke="#667eea" stroke-width="2" stroke-linecap="round"/>
    <line x1="-16" y1="-4" x2="8" y2="-4" stroke="#667eea" stroke-width="2" stroke-linecap="round"/>
    <line x1="-16" y1="4" x2="12" y2="4" stroke="#667eea" stroke-width="2" stroke-linecap="round"/>
    
    <!-- 小消息气泡 -->
    <circle cx="20" cy="8" r="8" fill="#ffffff" opacity="0.8"/>
    <circle cx="20" cy="8" r="4" fill="#764ba2"/>
    
    <!-- 数据表格图标 -->
    <g transform="translate(-8,16)">
      <rect x="0" y="0" width="24" height="16" rx="2" fill="#ffffff" opacity="0.9"/>
      <line x1="0" y1="4" x2="24" y2="4" stroke="#667eea" stroke-width="1"/>
      <line x1="0" y1="8" x2="24" y2="8" stroke="#667eea" stroke-width="1"/>
      <line x1="0" y1="12" x2="24" y2="12" stroke="#667eea" stroke-width="1"/>
      <line x1="8" y1="0" x2="8" y2="16" stroke="#667eea" stroke-width="1"/>
      <line x1="16" y1="0" x2="16" y2="16" stroke="#667eea" stroke-width="1"/>
    </g>
  </g>
  
  <!-- 装饰性小点 -->
  <circle cx="32" cy="32" r="2" fill="#ffffff" opacity="0.6"/>
  <circle cx="96" cy="96" r="2" fill="#ffffff" opacity="0.6"/>
  <circle cx="32" cy="96" r="1.5" fill="#ffffff" opacity="0.4"/>
  <circle cx="96" cy="32" r="1.5" fill="#ffffff" opacity="0.4"/>
</svg>
